<svg xmlns="http://www.w3.org/2000/svg" width="20.571" height="16" viewBox="0 0 20.571 16"><path d="M20,32a.574.574,0,0,0-.213.041l-6.073,2.244h0L7.571,32.117a2.288,2.288,0,0,0-1.43,0L.719,34A1.143,1.143,0,0,0,0,35.059V47.428a.57.57,0,0,0,.784.531l6.073-2.244L13,47.882a2.285,2.285,0,0,0,1.43.005L19.853,46a1.143,1.143,0,0,0,.719-1.061V32.572A.572.572,0,0,0,20,32ZM8,34.086,12.571,35.7V45.914L8,44.3Zm-6.286,11.7V35.467l4.571-1.59V44.1l-.023.008Zm17.143-1.255-4.571,1.59V35.9l.023-.009,4.549-1.681Z" transform="translate(0 -32)" fill="#fff"/></svg>