<svg xmlns="http://www.w3.org/2000/svg" width="49.653" height="56.749" viewBox="0 0 49.653 56.749"><g transform="translate(-785.392 -2959.333)"><path d="M1.507,8.822l.709.166v6.473a2.561,2.561,0,0,0-.1,4.433L.388,26.8c-.188.765.233,1.552.842,1.552H5.863c.61,0,1.031-.787.842-1.552l-1.729-6.9a2.561,2.561,0,0,0-.1-4.433V9.631l7.315,1.762a14.161,14.161,0,1,0,26.821,6.317,13.933,13.933,0,0,0-1.552-6.317L48.134,8.822a1.764,1.764,0,0,0,0-3.491l-21.1-5.1a9.52,9.52,0,0,0-4.4,0L1.507,5.32A1.771,1.771,0,0,0,1.507,8.822Z" transform="translate(785.398 2959.358)"/><path d="M35.4,34.573,24.826,45.146,14.253,34.573A14.862,14.862,0,0,0,0,49.4v1.064a5.321,5.321,0,0,0,5.32,5.32H44.333a5.321,5.321,0,0,0,5.32-5.32V49.4A14.862,14.862,0,0,0,35.4,34.573Z" transform="translate(785.392 2960.296)" fill="#686868"/></g></svg>