<svg xmlns="http://www.w3.org/2000/svg" width="63.599" height="56" viewBox="0 0 63.599 56"><g transform="translate(-476 -2963.502)"><path d="M22.75,0a6.979,6.979,0,0,0-6.759,5.272c-.088,0-.153-.022-.241-.022a7.007,7.007,0,0,0-7,7,6.45,6.45,0,0,0,.186,1.531A8.675,8.675,0,0,0,4.408,25.692a8.718,8.718,0,0,0,1,15.641,8.015,8.015,0,0,0-.153,1.542,7.87,7.87,0,0,0,7.875,7.875,7.415,7.415,0,0,0,1.313-.131A7.856,7.856,0,0,0,29.75,48.125V7A7.007,7.007,0,0,0,22.75,0Z" transform="translate(476 2963.502)"/><path d="M7,0a6.979,6.979,0,0,1,6.759,5.272c.088,0,.153-.022.241-.022a7.007,7.007,0,0,1,7,7,6.45,6.45,0,0,1-.186,1.531,8.675,8.675,0,0,1,4.528,11.911,8.718,8.718,0,0,1-1,15.641,8.015,8.015,0,0,1,.153,1.542,7.87,7.87,0,0,1-7.875,7.875,7.415,7.415,0,0,1-1.313-.131A7.856,7.856,0,0,1,0,48.125V7A7.007,7.007,0,0,1,7,0Z" transform="translate(509.849 2963.502)" fill="#686868"/></g></svg>