<svg xmlns="http://www.w3.org/2000/svg" width="71" height="56" viewBox="0 0 71 56"><g transform="translate(-1075 -2965)"><path d="M24.5,28a14,14,0,1,0-14-14A14,14,0,0,0,24.5,28ZM35,32.375a6.212,6.212,0,0,1,.12-.788c-.273-.011-.536-.087-.82-.087H32.473a19.04,19.04,0,0,1-15.947,0H14.7A14.7,14.7,0,0,0,0,46.2v4.55A5.251,5.251,0,0,0,5.25,56h38.5a5.383,5.383,0,0,0,2.1-.437A29.387,29.387,0,0,1,35,32.375Z" transform="translate(1075 2965)"/><path d="M68.064,29.652l-12.6-4.922a3.389,3.389,0,0,0-2.428,0l-12.6,4.922A2.958,2.958,0,0,0,38.5,32.375c0,12.206,7.514,20.65,14.536,23.4a3.393,3.393,0,0,0,2.428,0C61.075,53.583,70,45.992,70,32.375A2.958,2.958,0,0,0,68.064,29.652ZM54.25,50.575V29.892L64.7,33.972a19.565,19.565,0,0,1-10.445,16.6Z" transform="translate(1076 2964.525)" fill="#686868"/></g></svg>