<svg xmlns="http://www.w3.org/2000/svg" width="365.949" height="453.022" viewBox="45 40 365.949 453.022"><path d="M-67.023-212.578q0-33.173,52.806-71.762,18.956-14.217,25.049-22a28.3,28.3,0,0,0,6.093-17.941,21.506,21.506,0,0,0-7.786-16.925q-7.786-6.77-19.294-6.77a30.318,30.318,0,0,0-23.018,10.155q-9.478,10.155-19.633,32.5l-94.78-41.974q14.217-53.483,51.113-80.563t90.38-27.08q60.93,0,101.55,33.85t40.62,88.01q0,27.08-11.509,47.39t-39.266,44L72.439-230.857q-33.85,27.08-33.85,43.328v8.8H-58.9Q-67.023-197.684-67.023-212.578ZM-62.961-13.54Q-84.625-35.2-84.625-67.7t21.664-54.16Q-41.3-143.524-7.447-143.524q32.5,0,53.822,21.664T67.7-67.7q0,32.5-21.325,54.16T-7.447,8.124Q-41.3,8.124-62.961-13.54Z" transform="matrix(0.848, -0.53, 0.53, 0.848, 366.244, 457.924)" fill="#2b2a29"/></svg>