<svg xmlns="http://www.w3.org/2000/svg" width="206.462" height="24.628" viewBox="0 0 206.462 24.628">
  <g id="Group_29" data-name="Group 29" transform="translate(-376.376 -76)">
    <path id="Union_6" data-name="Union 6" d="M7.31,15.572H4.655A23,23,0,0,0,5.984,9.588,23.006,23.006,0,0,0,0,10.917V4.655A23,23,0,0,0,5.984,5.984,23,23,0,0,0,4.655,0h6.262A22.992,22.992,0,0,0,9.588,5.984a23,23,0,0,0,5.984-1.329v6.262A23.011,23.011,0,0,0,9.588,9.588a22.994,22.994,0,0,0,1.329,5.984Z" transform="translate(514.428 80)" fill="red"/>
    <path id="Path_69" data-name="Path 69" d="M2.376,0V-23.76H18.5v5.58H8.568v4.536h8.064v5.58H8.568V0ZM19.62,0V-23.76h6.192V0ZM43.164-23.76h6.192V.432h-1.98L34.488-12.06V0H28.3V-24.192h1.98L43.164-11.88ZM66.456,0l-.864-1.98H57.06L56.2,0h-6.66l10.8-24.192h1.98L73.116,0ZM63.4-6.948l-2.052-5.508L59.256-6.948ZM88.164-23.76h6.192V.432h-1.98L79.488-12.06V0H73.3V-24.192h1.98L88.164-11.88Zm7.452,11.88a11.469,11.469,0,0,1,3.744-8.766,12.325,12.325,0,0,1,9.108-3.546,12.394,12.394,0,0,1,6.408,1.674,11.782,11.782,0,0,1,4.464,4.7l-4.716,3.2q-2.3-3.888-6.192-3.888a6.279,6.279,0,0,0-4.662,1.836,6.558,6.558,0,0,0-1.818,4.824,6.625,6.625,0,0,0,1.8,4.788,6.485,6.485,0,0,0,4.68,1.8q3.888,0,6.192-3.888l4.716,3.2a11.782,11.782,0,0,1-4.464,4.7A12.463,12.463,0,0,1,108.432.432a12.5,12.5,0,0,1-9.09-3.564A11.275,11.275,0,0,1,95.616-11.88ZM120.6,0V-23.76h16.488v5.58h-10.3V-14.9h7.344V-9.72h-7.344v4.14H137.52V0Z" transform="translate(374 100.195)" fill="red"/>
    <path id="Path_70" data-name="Path 70" d="M3.43,0V-23.1H5.25V-1.645H16.625V0Z" transform="translate(531 99.451)" fill="red"/>
    <path id="Path_71" data-name="Path 71" d="M3.43,0V-23.1H5.25V-1.645H16.625V0ZM14.56-11.55A11.14,11.14,0,0,1,17.99-20a11.258,11.258,0,0,1,8.4-3.448,11.593,11.593,0,0,1,5.32,1.243,10.963,10.963,0,0,1,4.025,3.448L34.37-17.675a9.227,9.227,0,0,0-7.945-4.1,9.279,9.279,0,0,0-7.087,2.94,9.78,9.78,0,0,0-2.852,7.245,9.823,9.823,0,0,0,2.852,7.28,9.279,9.279,0,0,0,7.087,2.94,9.251,9.251,0,0,0,7.945-4.06L35.735-4.34A10.963,10.963,0,0,1,31.71-.893,11.593,11.593,0,0,1,26.39.35,11.086,11.086,0,0,1,17.99-3.1,11.209,11.209,0,0,1,14.56-11.55Z" transform="translate(547.103 99.451)" fill="red"/>
  </g>
</svg>
